<mxfile host="app.diagrams.net" modified="2023-06-08T19:50:07.699Z" agent="Mozilla/5.0 (Macintosh; Intel Mac OS X 10_15_7) AppleWebKit/537.36 (KHTML, like Gecko) Chrome/113.0.0.0 Safari/537.36" version="21.3.4" etag="ykPzKBPA7gyv3KjtuGWy" type="github">
  <diagram name="Page-1" id="1PYWxoSfhRYYdLAb6n6c">
    <mxGraphModel>
      <root>
        <mxCell id="0" />
        <mxCell id="1" parent="0" />
      </root>
    </mxGraphModel>
  </diagram>
</mxfile>
